<?xml version="1.0" encoding="UTF-8"?>
<svg version="1.1" xmlns="http://www.w3.org/2000/svg" width="1200" height="630">
<path d="M0 0 C396 0 792 0 1200 0 C1200 207.9 1200 415.8 1200 630 C804 630 408 630 0 630 C0 422.1 0 214.2 0 0 Z " fill="#2C61D2" transform="translate(0,0)"/>
<path d="M0 0 C5.28 0 10.56 0 16 0 C18.16908315 5.49087907 19.83105914 10.86955104 21.125 16.625 C21.29386719 17.34945313 21.46273438 18.07390625 21.63671875 18.8203125 C22.56680891 22.86290908 23.36596728 26.89819652 24 31 C24.66 31 25.32 31 26 31 C26.103125 30.08992188 26.20625 29.17984375 26.3125 28.2421875 C27.0956895 22.76813414 28.58869211 17.46400438 30 12.125 C30.27328125 11.06796875 30.5465625 10.0109375 30.828125 8.921875 C32.87167901 1.12832099 32.87167901 1.12832099 34 0 C39.28 0 44.56 0 50 0 C50 17.16 50 34.32 50 52 C46.7 52 43.4 52 40 52 C39.67 40.12 39.34 28.24 39 16 C36.40948469 27.0987254 36.40948469 27.0987254 33.82446289 38.19873047 C33.49906007 39.58826286 33.17347066 40.97775156 32.84765625 42.3671875 C32.68003784 43.09107666 32.51241943 43.81496582 32.33972168 44.56079102 C31.1140718 49.7718564 31.1140718 49.7718564 30 52 C26.37 52 22.74 52 19 52 C18.01920021 47.69548485 17.04067921 43.39045977 16.06420898 39.08496094 C15.73214323 37.62225573 15.39946988 36.15968831 15.06616211 34.69726562 C14.58545262 32.58760484 14.10697572 30.4774479 13.62890625 28.3671875 C13.34088135 27.09987793 13.05285645 25.83256836 12.75610352 24.52685547 C12.07921067 21.36947928 11.53086386 18.18518317 11 15 C10.67 27.21 10.34 39.42 10 52 C6.7 52 3.4 52 0 52 C0 34.84 0 17.68 0 0 Z " fill="#F9FAFD" transform="translate(347,271)"/>
<path d="M0 0 C5.28 0 10.56 0 16 0 C18.48599493 6.19676156 20.18904279 12.37414033 21.6875 18.875 C21.91244141 19.82375 22.13738281 20.7725 22.36914062 21.75 C24 28.70965521 24 28.70965521 24 31 C24.66 31 25.32 31 26 31 C26.18755859 29.48019531 26.18755859 29.48019531 26.37890625 27.9296875 C26.97025735 24.18818303 27.8487013 20.74885076 28.9375 17.125 C30.15376519 12.99586782 31.29795313 8.89936966 32.1875 4.6875 C33 1 33 1 34 0 C39.28 0 44.56 0 50 0 C50 17.16 50 34.32 50 52 C46.7 52 43.4 52 40 52 C39.67 40.12 39.34 28.24 39 16 C36.78318625 25.60204856 36.78318625 25.60204856 34.57275391 35.20556641 C34.29351074 36.40874512 34.01426758 37.61192383 33.7265625 38.8515625 C33.44377441 40.07697754 33.16098633 41.30239258 32.86962891 42.56494141 C32.05688544 45.7753009 31.09188993 48.87493572 30 52 C26.37 52 22.74 52 19 52 C16.33333333 40 13.66666667 28 11 16 C10.67 27.88 10.34 39.76 10 52 C6.7 52 3.4 52 0 52 C0 34.84 0 17.68 0 0 Z " fill="#F9FAFD" transform="translate(267,271)"/>
<path d="M0 0 C3.63 0 7.26 0 11 0 C11 17.16 11 34.32 11 52 C7.7 52 4.4 52 1 52 C0.67 51.01 0.34 50.02 0 49 C-0.598125 49.474375 -1.19625 49.94875 -1.8125 50.4375 C-5.881524 53.34394571 -10.1453111 53.63683181 -15 53 C-19.45390306 50.90404562 -22.61307682 47.97287982 -25.08203125 43.74609375 C-26.35396322 39.9411228 -26.51214266 36.36731282 -26.5625 32.375 C-26.57716309 31.64643799 -26.59182617 30.91787598 -26.60693359 30.16723633 C-26.48202147 23.55968583 -23.79915642 19.97050465 -19.375 15.125 C-14.92642208 12.32404353 -11.14225525 12.02207507 -6 13 C-4.35 13.99 -2.7 14.98 -1 16 C-0.67 10.72 -0.34 5.44 0 0 Z " fill="#F7F9FD" transform="translate(727,271)"/>
<path d="M0 0 C3.125 2 3.125 2 5 4 C5.5775 3.71125 6.155 3.4225 6.75 3.125 C7.86375 2.568125 7.86375 2.568125 9 2 C9.61488281 1.65324219 10.22976563 1.30648438 10.86328125 0.94921875 C14.4956018 -0.66440811 18.10243989 -0.45320466 22 0 C25.7477404 1.62945235 27.93338461 3.49094169 30 7 C30.34057617 10.39160156 30.34057617 10.39160156 30.29296875 14.390625 C30.28872391 15.09523865 30.28447906 15.79985229 30.28010559 16.52581787 C30.26336538 18.76760712 30.22572404 21.00848431 30.1875 23.25 C30.17244704 24.77342448 30.1587597 26.29686311 30.14648438 27.8203125 C30.11347791 31.54716941 30.06172854 35.27349563 30 39 C26.37 39 22.74 39 19 39 C18.67 29.43 18.34 19.86 18 10 C12.53214142 8.44001683 12.53214142 8.44001683 10.15698242 10.05004883 C8.5205257 12.8080948 8.56332033 15.00255398 8.48828125 18.19921875 C8.45283203 19.40771484 8.41738281 20.61621094 8.38085938 21.86132812 C8.35830078 23.12396484 8.33574219 24.38660156 8.3125 25.6875 C8.27833984 26.96173828 8.24417969 28.23597656 8.20898438 29.54882812 C8.12639216 32.69913103 8.05727665 35.84915157 8 39 C4.37 39 0.74 39 -3 39 C-3.01981934 38.16227051 -3.03963867 37.32454102 -3.06005859 36.46142578 C-3.13810612 33.35634166 -3.22479635 30.25165461 -3.31738281 27.14697266 C-3.37454036 25.14113029 -3.42168596 23.13501082 -3.46875 21.12890625 C-3.50742187 19.87207031 -3.54609375 18.61523438 -3.5859375 17.3203125 C-3.6173584 16.15773926 -3.6487793 14.99516602 -3.68115234 13.79736328 C-3.72157869 10.86343518 -3.72157869 10.86343518 -6 9 C-8.73874782 8.64887848 -10.3248706 8.53057804 -12.62817383 10.13208008 C-14.5952538 12.81051555 -14.43427678 14.90019089 -14.51171875 18.19921875 C-14.54716797 19.40771484 -14.58261719 20.61621094 -14.61914062 21.86132812 C-14.65297852 23.7552832 -14.65297852 23.7552832 -14.6875 25.6875 C-14.72166016 26.96173828 -14.75582031 28.23597656 -14.79101562 29.54882812 C-14.87360784 32.69913103 -14.94272335 35.84915157 -15 39 C-18.63 39 -22.26 39 -26 39 C-26 26.46 -26 13.92 -26 1 C-22.7 1 -19.4 1 -16 1 C-16 1.99 -16 2.98 -16 4 C-15.21625 3.34 -14.4325 2.68 -13.625 2 C-9.37930484 -0.82374025 -4.92637058 -0.85248343 0 0 Z " fill="#F6F8FD" transform="translate(624,284)"/>
<path d="M0 0 C3.125 2 3.125 2 5 4 C5.5775 3.71125 6.155 3.4225 6.75 3.125 C7.86375 2.568125 7.86375 2.568125 9 2 C9.61488281 1.65324219 10.22976563 1.30648438 10.86328125 0.94921875 C14.4956018 -0.66440811 18.10243989 -0.45320466 22 0 C25.7477404 1.62945235 27.93338461 3.49094169 30 7 C30.34057617 10.39160156 30.34057617 10.39160156 30.29296875 14.390625 C30.28872391 15.09523865 30.28447906 15.79985229 30.28010559 16.52581787 C30.26336538 18.76760712 30.22572404 21.00848431 30.1875 23.25 C30.17244704 24.77342448 30.1587597 26.29686311 30.14648438 27.8203125 C30.11347791 31.54716941 30.06172854 35.27349563 30 39 C26.37 39 22.74 39 19 39 C18.67 29.43 18.34 19.86 18 10 C12.53214142 8.44001683 12.53214142 8.44001683 10.15698242 10.05004883 C8.5205257 12.8080948 8.56332033 15.00255398 8.48828125 18.19921875 C8.45283203 19.40771484 8.41738281 20.61621094 8.38085938 21.86132812 C8.35830078 23.12396484 8.33574219 24.38660156 8.3125 25.6875 C8.27833984 26.96173828 8.24417969 28.23597656 8.20898438 29.54882812 C8.12639216 32.69913103 8.05727665 35.84915157 8 39 C4.37 39 0.74 39 -3 39 C-3.01981934 38.16227051 -3.03963867 37.32454102 -3.06005859 36.46142578 C-3.13810612 33.35634166 -3.22479635 30.25165461 -3.31738281 27.14697266 C-3.37454036 25.14113029 -3.42168596 23.13501082 -3.46875 21.12890625 C-3.50742187 19.87207031 -3.54609375 18.61523438 -3.5859375 17.3203125 C-3.6173584 16.15773926 -3.6487793 14.99516602 -3.68115234 13.79736328 C-3.72157869 10.86343518 -3.72157869 10.86343518 -6 9 C-8.73874782 8.64887848 -10.3248706 8.53057804 -12.62817383 10.13208008 C-14.5952538 12.81051555 -14.43427678 14.90019089 -14.51171875 18.19921875 C-14.54716797 19.40771484 -14.58261719 20.61621094 -14.61914062 21.86132812 C-14.65297852 23.7552832 -14.65297852 23.7552832 -14.6875 25.6875 C-14.72166016 26.96173828 -14.75582031 28.23597656 -14.79101562 29.54882812 C-14.87360784 32.69913103 -14.94272335 35.84915157 -15 39 C-18.63 39 -22.26 39 -26 39 C-26 26.46 -26 13.92 -26 1 C-22.7 1 -19.4 1 -16 1 C-16 1.99 -16 2.98 -16 4 C-15.21625 3.34 -14.4325 2.68 -13.625 2 C-9.37930484 -0.82374025 -4.92637058 -0.85248343 0 0 Z " fill="#F6F8FD" transform="translate(560,284)"/>
<path d="M0 0 C3.63 0 7.26 0 11 0 C14.70575843 7.14681983 17.68434158 14.44034213 20.48046875 21.984375 C20.74166504 22.68755859 21.00286133 23.39074219 21.27197266 24.11523438 C21.78693162 25.50584622 22.29849943 26.89772005 22.80615234 28.29101562 C24.301788 32.34215468 26.03204441 36.14873206 28 40 C28.75196199 41.74032675 29.48293978 43.48994917 30.1875 45.25 C30.53167969 46.10078125 30.87585938 46.9515625 31.23046875 47.828125 C32 50 32 50 32 52 C28.04 52 24.08 52 20 52 C17.65494306 47.71772212 16.83312559 44.99875355 16 40 C9.07 40 2.14 40 -5 40 C-5.66 43.3 -6.32 46.6 -7 50 C-7.33 50.66 -7.66 51.32 -8 52 C-11.96 52 -15.92 52 -20 52 C-18.99175543 47.9670217 -17.69768219 44.10048617 -16.3125 40.1875 C-16.04775879 39.43847412 -15.78301758 38.68944824 -15.51025391 37.91772461 C-12.872651 30.52760684 -9.96159283 23.26555067 -7 16 C-6.2698047 14.14623818 -5.54050826 12.2921218 -4.8125 10.4375 C-3.38127563 6.85045649 -1.7984243 3.41700616 0 0 Z " fill="#F7F9FD" transform="translate(782,271)"/>
<path d="M0 0 C4.58188335 3.38186629 8.45090582 7.61748153 10.625 12.9375 C11.44008279 19.16176857 11.00712988 25.53502191 7.625 30.9375 C3.20437853 35.78047384 -0.3518667 38.5002029 -6.890625 39.2109375 C-13.73144925 39.46502526 -18.26099861 38.64654653 -23.375 33.9375 C-27.8397555 29.41829627 -28.73089473 25.15313427 -28.9375 18.875 C-28.71072991 12.98527692 -28.06720611 9.5278103 -24.375 4.9375 C-17.23341093 -1.66846989 -9.33039501 -2.93734658 0 0 Z " fill="#F7F8FD" transform="translate(433.375,285.0625)"/>
<path d="M0 0 C1.20269531 -0.02578125 2.40539062 -0.0515625 3.64453125 -0.078125 C8.28105435 0.35127736 11.5975902 1.56289357 14.82885742 4.99169922 C16.54771153 7.84873435 16.60013831 9.79468885 16.6640625 13.1171875 C16.695 14.25027344 16.7259375 15.38335937 16.7578125 16.55078125 C16.77585937 17.73027344 16.79390625 18.90976562 16.8125 20.125 C16.86378287 22.45580656 16.91836253 24.7865434 16.9765625 27.1171875 C16.99412598 28.14956543 17.01168945 29.18194336 17.02978516 30.24560547 C17.19072252 33.31138753 17.62639131 36.23397042 18.1875 39.25 C16.39616022 39.30391993 14.60436101 39.34275571 12.8125 39.375 C11.81476562 39.39820313 10.81703125 39.42140625 9.7890625 39.4453125 C7.1875 39.25 7.1875 39.25 5.1875 37.25 C4.40375 37.745 3.62 38.24 2.8125 38.75 C-1.85316485 40.68061994 -5.82508958 41.01601295 -10.8125 40.25 C-14.20738422 38.19892412 -15.61573081 36.54515379 -17.8125 33.25 C-18.24322377 28.7991877 -18.41765919 26.38467348 -16.3125 22.4375 C-10.33680097 17.20876335 -2.41122739 16.43730115 5.1875 15.25 C4.8575 13.6 4.5275 11.95 4.1875 10.25 C1.5475 9.92 -1.0925 9.59 -3.8125 9.25 C-4.121875 9.91 -4.43125 10.57 -4.75 11.25 C-7.26807014 13.69176498 -8.09357372 13.52142406 -11.5 13.5 C-12.9384798 13.43576167 -14.37666999 13.35836453 -15.8125 13.25 C-15.5589147 8.93904992 -15.2279009 6.75285372 -12.4375 3.375 C-8.34793861 0.06440268 -5.1276762 0.06552941 0 0 Z " fill="#F5F8FD" transform="translate(877.8125,283.75)"/>
<path d="M0 0 C1.20269531 -0.02578125 2.40539062 -0.0515625 3.64453125 -0.078125 C8.27372599 0.35059866 11.57424503 1.56931611 14.82885742 4.95996094 C16.61179006 7.96515556 16.60278791 10.14181367 16.6640625 13.625 C16.695 14.85734375 16.7259375 16.0896875 16.7578125 17.359375 C16.77585937 18.64328125 16.79390625 19.9271875 16.8125 21.25 C16.86353901 23.79174255 16.91807421 26.33341796 16.9765625 28.875 C16.99412598 30.00164062 17.01168945 31.12828125 17.02978516 32.2890625 C17.16273488 34.78505981 17.46434863 36.87092628 18.1875 39.25 C16.39616022 39.30391993 14.60436101 39.34275571 12.8125 39.375 C11.81476562 39.39820313 10.81703125 39.42140625 9.7890625 39.4453125 C7.1875 39.25 7.1875 39.25 5.1875 37.25 C4.383125 37.745 3.57875 38.24 2.75 38.75 C-1.62966838 40.59407089 -5.12511524 41.02144794 -9.8125 40.25 C-13.6151029 38.2449912 -15.43040841 36.82313738 -17.8125 33.25 C-18.24322377 28.7991877 -18.41765919 26.38467348 -16.3125 22.4375 C-10.33680097 17.20876335 -2.41122739 16.43730115 5.1875 15.25 C4.8575 13.6 4.5275 11.95 4.1875 10.25 C1.5475 9.92 -1.0925 9.59 -3.8125 9.25 C-4.121875 9.91 -4.43125 10.57 -4.75 11.25 C-7.26807014 13.69176498 -8.09357372 13.52142406 -11.5 13.5 C-12.9384798 13.43576167 -14.37666999 13.35836453 -15.8125 13.25 C-15.5589147 8.93904992 -15.2279009 6.75285372 -12.4375 3.375 C-8.34793861 0.06440268 -5.1276762 0.06552941 0 0 Z " fill="#F5F7FD" transform="translate(677.8125,283.75)"/>
<path d="M0 0 C3.25740312 2.05358023 4.21465737 3.377122 5.875 6.8125 C6.29150391 9.90283203 6.29150391 9.90283203 6.3515625 13.3203125 C6.3825 14.55394531 6.4134375 15.78757812 6.4453125 17.05859375 C6.46335937 18.33863281 6.48140625 19.61867188 6.5 20.9375 C6.55093791 23.48184866 6.60545304 26.02612899 6.6640625 28.5703125 C6.68162598 29.6958252 6.69918945 30.82133789 6.71728516 31.98095703 C6.75484392 34.89033042 6.75484392 34.89033042 7.875 37.8125 C4.245 37.8125 0.615 37.8125 -3.125 37.8125 C-3.455 37.1525 -3.785 36.4925 -4.125 35.8125 C-4.723125 36.121875 -5.32125 36.43125 -5.9375 36.75 C-10.91960316 39.16987868 -15.67195212 39.59150684 -21.125 38.8125 C-24.24965186 37.1376866 -26.51754192 35.02741615 -28.125 31.8125 C-28.69338366 24.87821936 -28.69338366 24.87821936 -26.625 21 C-20.64930097 15.77126335 -12.72372739 14.99980115 -5.125 13.8125 C-5.455 12.1625 -5.785 10.5125 -6.125 8.8125 C-8.765 8.4825 -11.405 8.1525 -14.125 7.8125 C-14.51300781 8.47765625 -14.90101563 9.1428125 -15.30078125 9.828125 C-17.125 11.8125 -17.125 11.8125 -19.60546875 11.984375 C-20.49878906 11.84515625 -21.39210938 11.7059375 -22.3125 11.5625 C-23.21355469 11.43359375 -24.11460937 11.3046875 -25.04296875 11.171875 C-25.73003906 11.05328125 -26.41710937 10.9346875 -27.125 10.8125 C-25.84914356 5.82506118 -24.03918193 3.15387482 -20.125 -0.1875 C-14.04458241 -2.21430586 -6.04778006 -2.29711818 0 0 Z " fill="#F5F7FC" transform="translate(520.125,285.1875)"/>
<path d="M0 0 C3.3 0 6.6 0 10 0 C10.33 5.61 10.66 11.22 11 17 C12.98 15.68 14.96 14.36 17 13 C21.68748166 11.93750416 25.21382409 12.58547088 29.4375 14.8125 C32 17 32 17 34 20 C34.17112002 22.47056823 34.23253124 24.82503921 34.1953125 27.29296875 C34.1924826 27.99899734 34.18965271 28.70502594 34.18673706 29.43244934 C34.17555464 31.68430633 34.1504542 33.93576352 34.125 36.1875 C34.11496767 37.71548904 34.10584226 39.24348433 34.09765625 40.77148438 C34.07562172 44.51447663 34.04110567 48.25717056 34 52 C30.7 52 27.4 52 24 52 C23.98541748 51.16227051 23.97083496 50.32454102 23.95581055 49.46142578 C23.89479293 46.35621098 23.82064935 43.25166883 23.73754883 40.14697266 C23.68790041 38.14117664 23.65345836 36.13502313 23.61914062 34.12890625 C23.58369141 32.87207031 23.54824219 31.61523438 23.51171875 30.3203125 C23.48553467 29.15773926 23.45935059 27.99516602 23.43237305 26.79736328 C23.28968994 25.8742334 23.14700684 24.95110352 23 24 C19.75173326 21.83448884 18.76905843 21.44843047 15 22 C12.22562722 24.1487664 11.1235764 25.35691637 10.45410156 28.84082031 C10.4331543 29.90913086 10.41220703 30.97744141 10.390625 32.078125 C10.35839844 33.23828125 10.32617188 34.3984375 10.29296875 35.59375 C10.27169922 37.40359375 10.27169922 37.40359375 10.25 39.25 C10.22035156 40.47203125 10.19070313 41.6940625 10.16015625 42.953125 C10.08947598 45.96881644 10.03676825 48.9837355 10 52 C6.7 52 3.4 52 0 52 C0 34.84 0 17.68 0 0 Z " fill="#FBFCFE" transform="translate(451,271)"/>
<path d="M0 0 C1.19367187 -0.01675781 2.38734375 -0.03351563 3.6171875 -0.05078125 C8.70002557 0.47561512 11.94930678 2.10586749 15.5 5.75 C17.125 8.3125 17.125 8.3125 17.125 12.3125 C15.52512764 12.58865058 13.919667 12.83257625 12.3125 13.0625 C11.41917969 13.20171875 10.52585937 13.3409375 9.60546875 13.484375 C8.78691406 13.42765625 7.96835937 13.3709375 7.125 13.3125 C5.5234375 11.34765625 5.5234375 11.34765625 4.125 9.3125 C-0.52897775 8.89294645 -0.52897775 8.89294645 -4.875 10.3125 C-4.875 10.9725 -4.875 11.6325 -4.875 12.3125 C-3.71742188 12.62703125 -2.55984375 12.9415625 -1.3671875 13.265625 C0.17203201 13.6973573 1.71108588 14.1296804 3.25 14.5625 C4.01054688 14.76746094 4.77109375 14.97242188 5.5546875 15.18359375 C10.41841952 16.56724165 14.12250768 18.19529415 18.125 21.3125 C19.86482727 24.79215454 19.71058571 28.51606229 19.125 32.3125 C16.35146552 35.95771674 13.19404938 38.26068473 9.125 40.3125 C5.78515625 40.7109375 5.78515625 40.7109375 2.1875 40.6875 C1.00285156 40.69523437 -0.18179688 40.70296875 -1.40234375 40.7109375 C-6.14426999 40.16686947 -9.41750714 38.41546757 -13.1875 35.5625 C-15.43276705 32.5688106 -15.59212634 29.9898576 -15.875 26.3125 C-14.2723218 26.20425157 -12.66754252 26.12679355 -11.0625 26.0625 C-10.16917969 26.01609375 -9.27585937 25.9696875 -8.35546875 25.921875 C-5.875 26.3125 -5.875 26.3125 -4.3046875 28.27734375 C-3.59699219 29.28474609 -3.59699219 29.28474609 -2.875 30.3125 C0.42553472 31.39089253 3.95003506 31.89998247 7.125 30.3125 C7.77713292 28.28786745 7.77713292 28.28786745 8.125 26.3125 C7.073125 26.14814453 7.073125 26.14814453 6 25.98046875 C-0.98466884 24.81319393 -7.29016754 23.55302029 -13.375 19.75 C-15.80820701 15.7960386 -15.60521829 11.81794685 -14.875 7.3125 C-11.18767394 0.99136961 -7.03034365 0.02267853 0 0 Z " fill="#F5F8FD" transform="translate(915.875,283.6875)"/>
<path d="M0 0 C3.77305135 1.60555376 5.92342084 3.4839366 8 7 C8.34057617 10.39160156 8.34057617 10.39160156 8.29296875 14.390625 C8.28872391 15.09523865 8.28447906 15.79985229 8.28010559 16.52581787 C8.26336538 18.76760712 8.22572404 21.00848431 8.1875 23.25 C8.17244704 24.77342448 8.1587597 26.29686311 8.14648438 27.8203125 C8.11347791 31.54716941 8.06172854 35.27349563 8 39 C4.7 39 1.4 39 -2 39 C-2.0093457 38.19780029 -2.01869141 37.39560059 -2.02832031 36.5690918 C-2.08193742 32.94126361 -2.16560298 29.31473708 -2.25 25.6875 C-2.26417969 24.42486328 -2.27835938 23.16222656 -2.29296875 21.86132812 C-2.32519531 20.65283203 -2.35742188 19.44433594 -2.390625 18.19921875 C-2.41157227 17.08377686 -2.43251953 15.96833496 -2.45410156 14.8190918 C-2.75322639 11.90974277 -2.75322639 11.90974277 -4.84277344 10.07739258 C-7.07791317 8.69235227 -7.07791317 8.69235227 -10.125 9.5625 C-13.36895209 11.18447605 -13.77195843 11.71624659 -15 15 C-15.36388886 17.70534857 -15.36388886 17.70534857 -15.4140625 20.640625 C-15.47207031 22.24550781 -15.47207031 22.24550781 -15.53125 23.8828125 C-15.57765625 25.54957031 -15.57765625 25.54957031 -15.625 27.25 C-15.68300781 28.93996094 -15.68300781 28.93996094 -15.7421875 30.6640625 C-15.83637336 33.44254548 -15.92199586 36.22102334 -16 39 C-19.3 39 -22.6 39 -26 39 C-26 26.46 -26 13.92 -26 1 C-22.7 1 -19.4 1 -16 1 C-15.67 1.66 -15.34 2.32 -15 3 C-14.38125 2.505 -13.7625 2.01 -13.125 1.5 C-8.72013825 -0.61433364 -4.80835241 -0.58619123 0 0 Z " fill="#FAFBFE" transform="translate(845,284)"/>
<path d="M0 0 C2.206875 -0.061875 4.41375 -0.12375 6.6875 -0.1875 C8.54955078 -0.23970703 8.54955078 -0.23970703 10.44921875 -0.29296875 C14.2622149 0.02163489 16.03724525 0.6244579 19 3 C22.09886875 7.43765494 21.48695387 12.82330576 21 18 C19.86277937 21.2410788 19.1778117 23.18608767 16.34375 25.14453125 C11.26174659 26.99946249 5.30529546 26.09824621 0 26 C0 17.42 0 8.84 0 0 Z " fill="#3264D0" transform="translate(485,403)"/>
<path d="M0 0 C4.33125 -0.12375 4.33125 -0.12375 8.75 -0.25 C9.65331055 -0.28641602 10.55662109 -0.32283203 11.48730469 -0.36035156 C17.39428437 -0.44220957 17.39428437 -0.44220957 20.546875 1.859375 C22 4 22 4 22.5 6.5 C21.84884326 9.75578368 20.52871623 10.91752781 18 13 C17.01 13.495 17.01 13.495 16 14 C16.763125 14.86625 17.52625 15.7325 18.3125 16.625 C20.75220073 19.53600655 22.42998277 22.52943561 24 26 C21.74609375 26.33984375 21.74609375 26.33984375 19 26 C16.71894403 23.33217539 15.01233136 20.48183871 13.16015625 17.50390625 C11.16727983 14.7146113 11.16727983 14.7146113 7.74609375 14.15234375 C6.83988281 14.10207031 5.93367187 14.05179687 5 14 C5 17.96 5 21.92 5 26 C3.35 26 1.7 26 0 26 C0 17.42 0 8.84 0 0 Z " fill="#B4C5E0" transform="translate(724,403)"/>
<path d="M0 0 C1.98 0 3.96 0 6 0 C6.40992188 1.21558594 6.81984375 2.43117188 7.2421875 3.68359375 C7.78607235 5.26836169 8.33036426 6.85298997 8.875 8.4375 C9.14441406 9.23994141 9.41382813 10.04238281 9.69140625 10.86914062 C9.95566406 11.63291016 10.21992187 12.39667969 10.4921875 13.18359375 C10.73308105 13.89056396 10.97397461 14.59753418 11.22216797 15.32592773 C11.88185759 17.20038805 11.88185759 17.20038805 14 18 C15.98 12.06 17.96 6.12 20 0 C21.98 0 23.96 0 26 0 C26 8.58 26 17.16 26 26 C24.68 26 23.36 26 22 26 C21.67 20.39 21.34 14.78 21 9 C20.38125 11.0625 19.7625 13.125 19.125 15.25 C17.99640115 19.01199615 16.89499785 22.55144536 15 26 C13.35 25.67 11.7 25.34 10 25 C8.35 19.39 6.7 13.78 5 8 C4.67 13.94 4.34 19.88 4 26 C2.68 26 1.36 26 0 26 C0 17.42 0 8.84 0 0 Z " fill="#B9C8DF" transform="translate(670,403)"/>
<path d="M0 0 C2.8125 1.9375 2.8125 1.9375 5 5 C5.862571 9.83684674 5.39543884 13.89277124 3.75 18.5 C1.31479561 21.97886341 -0.37713884 22.6671054 -4.4375 23.5 C-8.39926169 22.72697333 -9.71712314 20.17066231 -12 17 C-13.74348951 13.51302098 -13.58082725 9.80409937 -13 6 C-10.04836986 0.4842124 -6.1020523 -2.03401743 0 0 Z " fill="#305FCB" transform="translate(428,293)"/>
<path d="M0 0 C12 0 12 0 15.25 2 C17.44910522 5.76989467 18.00761651 8.79750188 17 13 C15.63533257 15.84355812 14.51781703 16.85717699 12 19 C8.1875 19.375 8.1875 19.375 5 19 C4.67 21.31 4.34 23.62 4 26 C2.68 26 1.36 26 0 26 C0 17.42 0 8.84 0 0 Z " fill="#B9C8DF" transform="translate(596,410)"/>
<path d="M0 0 C2.52737004 1.91731521 2.9716847 2.91505409 4 6 C4.48198652 11.10431626 4.77318689 15.51310213 2.375 20.125 C-0.57958535 22.45756738 -2.22912279 23.07695668 -6 23 C-9.37545234 20.89971854 -10.73400961 19.79797116 -12 16 C-12.49252977 10.78402898 -12.86894992 6.44824986 -10.125 1.875 C-6.4760618 -1.34465135 -4.68460108 -1.14724924 0 0 Z " fill="#366BD9" transform="translate(723,293)"/>
<path d="M0 0 C5 0 5 0 6.57739258 1.46875 C7.01204834 2.1390625 7.4467041 2.809375 7.89453125 3.5 C8.37470703 4.221875 8.85488281 4.94375 9.34960938 5.6875 C9.83236328 6.450625 10.31511719 7.21375 10.8125 8 C11.31458984 8.763125 11.81667969 9.52625 12.33398438 10.3125 C13.57150337 12.19824322 14.78781744 14.09787114 16 16 C16.33 10.72 16.66 5.44 17 0 C18.32 0 19.64 0 21 0 C21 8.58 21 17.16 21 26 C16 25 16 25 14.42260742 23.32592773 C13.77062378 22.26547241 13.77062378 22.26547241 13.10546875 21.18359375 C12.62529297 20.41982422 12.14511719 19.65605469 11.65039062 18.86914062 C10.92625977 17.66547852 10.92625977 17.66547852 10.1875 16.4375 C9.68541016 15.63119141 9.18332031 14.82488281 8.66601562 13.99414062 C7.42999384 12.00473413 6.21312006 10.00345396 5 8 C4.67 13.94 4.34 19.88 4 26 C2.68 26 1.36 26 0 26 C0 17.42 0 8.84 0 0 Z " fill="#B7C7E0" transform="translate(750,403)"/>
<path d="M0 0 C3.55247432 0.87379409 4.94828114 2.4927342 6.9375 5.4765625 C7.61746257 9.09110037 7.32240001 12.35147018 6.125 15.8515625 C4.9375 17.4765625 4.9375 17.4765625 1.9375 19.4765625 C-5.03483202 20.02992218 -5.03483202 20.02992218 -8.5 18.1640625 C-11.34625714 15.09010479 -11.4735625 11.55614981 -11.3984375 7.484375 C-11.0625 5.4765625 -11.0625 5.4765625 -9.0625 2.4765625 C-5.73362371 0.25731164 -3.92313492 -0.28234683 0 0 Z " fill="#BAC8DF" transform="translate(586.0625,409.5234375)"/>
<path d="M0 0 C3 1.1875 3 1.1875 5 3 C5.8125 5.6875 5.8125 5.6875 6 8 C4.68 8 3.36 8 2 8 C1.401875 7.319375 0.80375 6.63875 0.1875 5.9375 C-0.534375 5.298125 -1.25625 4.65875 -2 4 C-5.69432511 4.14612895 -5.69432511 4.14612895 -9 5 C-8.96259349 6.96146836 -8.96259349 6.96146836 -8 9 C-5.29542691 10.29707527 -5.29542691 10.29707527 -2.0625 11.125 C3.82244556 12.82244556 3.82244556 12.82244556 6 15 C6.52637895 19.06063761 6.66230899 21.13899831 4.125 24.4375 C-0.29926768 26.64963384 -4.14405179 26.7893906 -9 26 C-12.49642065 24.07340087 -13.68231206 23.07525149 -14.8125 19.25 C-14.874375 18.5075 -14.93625 17.765 -15 17 C-13.68 17 -12.36 17 -11 17 C-10.54625 17.639375 -10.0925 18.27875 -9.625 18.9375 C-8.10182224 21.29249337 -8.10182224 21.29249337 -5 21.8125 C-1.9492473 22.19129864 -1.9492473 22.19129864 1 21 C1.33 19.35 1.66 17.7 2 16 C1.18015625 15.82984375 0.3603125 15.6596875 -0.484375 15.484375 C-1.56203125 15.24203125 -2.6396875 14.9996875 -3.75 14.75 C-4.81734375 14.51796875 -5.8846875 14.2859375 -6.984375 14.046875 C-10.3072395 12.89334173 -11.81347736 11.72146761 -14 9 C-14.5625 6.5 -14.5625 6.5 -14 4 C-10.06813747 -0.69286818 -5.7174157 -0.84932624 0 0 Z " fill="#B9C8E0" transform="translate(800,403)"/>
<path d="M0 0 C2.206875 -0.061875 4.41375 -0.12375 6.6875 -0.1875 C8.54955078 -0.23970703 8.54955078 -0.23970703 10.44921875 -0.29296875 C14.2622149 0.02163489 16.03724525 0.6244579 19 3 C22.09886875 7.43765494 21.48695387 12.82330576 21 18 C19.86277937 21.2410788 19.1778117 23.18608767 16.34375 25.14453125 C11.26174659 26.99946249 5.30529546 26.09824621 0 26 C0 17.42 0 8.84 0 0 Z M3 3 C3 9.6 3 16.2 3 23 C12.16016351 23.94698453 12.16016351 23.94698453 15.625 21.1875 C17.67497691 16.4352808 17.73646188 12.09255552 17 7 C15.85222791 4.10205377 15.85222791 4.10205377 13 3 C9.7 3 6.4 3 3 3 Z " fill="#C3CFE0" transform="translate(485,403)"/>
<path d="M0 0 C3.0625 1.75 3.0625 1.75 5 4 C5 5.32 5 6.64 5 8 C4.01 8 3.02 8 2 8 C1.4225 7.319375 0.845 6.63875 0.25 5.9375 C-1.98087896 3.55834924 -1.98087896 3.55834924 -5.75 4.25 C-7.35875 4.62125 -7.35875 4.62125 -9 5 C-8.96259349 6.96146836 -8.96259349 6.96146836 -8 9 C-5.29542691 10.29707527 -5.29542691 10.29707527 -2.0625 11.125 C3.82244556 12.82244556 3.82244556 12.82244556 6 15 C6.4375 18.375 6.4375 18.375 6 22 C3.8535008 24.70043447 2.26947214 25.79798635 -1.16015625 26.34375 C-4.81731583 26.4902806 -7.55739142 26.16597822 -11 24.875 C-13.63136193 22.40809819 -13.76481427 20.52778597 -14 17 C-12.68 17.33 -11.36 17.66 -10 18 C-10 18.99 -10 19.98 -10 21 C-8.54263913 21.19491452 -7.08405407 21.38069358 -5.625 21.5625 C-4.81289063 21.66691406 -4.00078125 21.77132813 -3.1640625 21.87890625 C-0.95100814 22.18237328 -0.95100814 22.18237328 1 21 C1.65555119 18.47266765 1.65555119 18.47266765 2 16 C1.18015625 15.82984375 0.3603125 15.6596875 -0.484375 15.484375 C-1.56203125 15.24203125 -2.6396875 14.9996875 -3.75 14.75 C-4.81734375 14.51796875 -5.8846875 14.2859375 -6.984375 14.046875 C-10.31410627 12.89095793 -11.85579969 11.77392905 -14 9 C-14 5.61152175 -13.62525655 3.78157069 -11.5 1.125 C-7.6737291 -0.59682191 -4.12107171 -0.66729097 0 0 Z " fill="#BDCADF" transform="translate(398,403)"/>
<path d="M0 0 C0.77085937 -0.01675781 1.54171875 -0.03351563 2.3359375 -0.05078125 C5.37639099 0.43174806 6.59088617 0.96544558 8.625 3.3125 C8.92061076 6.18288052 9.00443016 8.65004745 8.875 11.5 C8.85695313 12.24958984 8.83890625 12.99917969 8.8203125 13.77148438 C8.77324109 15.6190371 8.70149766 17.46593159 8.625 19.3125 C7.635 19.3125 6.645 19.3125 5.625 19.3125 C5.625 18.6525 5.625 17.9925 5.625 17.3125 C4.635 17.9725 3.645 18.6325 2.625 19.3125 C-0.92725172 19.86395843 -4.24440917 19.9837883 -7.375 18.125 C-8.75823858 15.61788007 -8.86815303 14.1305173 -8.375 11.3125 C-5.91920543 8.32283704 -3.29495181 8.04689997 0.375 7.625 C1.79070961 7.50854647 3.20722818 7.40035338 4.625 7.3125 C4.295 6.3225 3.965 5.3325 3.625 4.3125 C0.70847826 4.14568891 0.70847826 4.14568891 -2.375 4.3125 C-3.035 4.9725 -3.695 5.6325 -4.375 6.3125 C-5.365 6.3125 -6.355 6.3125 -7.375 6.3125 C-6.40941669 1.48458346 -4.9516284 0.02467589 0 0 Z " fill="#BDCBE0" transform="translate(827.375,409.6875)"/>
<path d="M0 0 C2.23828125 1.0078125 2.23828125 1.0078125 4 3 C4.29561076 5.87038052 4.37943016 8.33754745 4.25 11.1875 C4.23195313 11.93708984 4.21390625 12.68667969 4.1953125 13.45898438 C4.14824109 15.3065371 4.07649766 17.15343159 4 19 C3.01 19 2.02 19 1 19 C1 18.34 1 17.68 1 17 C0.484375 17.33 -0.03125 17.66 -0.5625 18 C-3.87219404 19.3578232 -6.45640517 19.32214498 -10 19 C-11.9375 17.8125 -11.9375 17.8125 -13 16 C-13.4375 13.5 -13.4375 13.5 -13 11 C-10.54420543 8.01033704 -7.91995181 7.73439997 -4.25 7.3125 C-2.83429039 7.19604647 -1.41777182 7.08785338 0 7 C-0.33 6.01 -0.66 5.02 -1 4 C-3.91652174 3.83318891 -3.91652174 3.83318891 -7 4 C-7.66 4.66 -8.32 5.32 -9 6 C-9.99 6 -10.98 6 -12 6 C-11.6875 4.125 -11.6875 4.125 -11 2 C-7.3946611 -0.40355927 -4.20638975 -0.75085268 0 0 Z " fill="#BDCBDF" transform="translate(430,410)"/>
<path d="M0 0 C6.27 0 12.54 0 19 0 C19 0.99 19 1.98 19 3 C14.05 3 9.1 3 4 3 C4 5.64 4 8.28 4 11 C8.62 11 13.24 11 18 11 C18 11.99 18 12.98 18 14 C13.38 14 8.76 14 4 14 C4 16.97 4 19.94 4 23 C8.95 23 13.9 23 19 23 C19 23.99 19 24.98 19 26 C12.73 26 6.46 26 0 26 C0 17.42 0 8.84 0 0 Z " fill="#C4D0E0" transform="translate(701,403)"/>
<path d="M0 0 C3.41886895 0.86161012 4.94716288 2.68936967 6.9375 5.48828125 C6.9375 7.13828125 6.9375 8.78828125 6.9375 10.48828125 C2.3175 10.48828125 -2.3025 10.48828125 -7.0625 10.48828125 C-6.7325 12.13828125 -6.4025 13.78828125 -6.0625 15.48828125 C-2.64593976 15.65505407 -2.64593976 15.65505407 0.9375 15.48828125 C1.5975 14.82828125 2.2575 14.16828125 2.9375 13.48828125 C3.9275 13.48828125 4.9175 13.48828125 5.9375 13.48828125 C5.625 15.36328125 5.625 15.36328125 4.9375 17.48828125 C1.26968328 19.9334924 -1.79703233 20.21065884 -6.0625 19.48828125 C-8.49369623 17.61813031 -9.70319173 16.2068978 -11.0625 13.48828125 C-11.74821429 6.51685268 -11.74821429 6.51685268 -9.0625 2.48828125 C-5.73190683 0.2678858 -3.92362419 -0.26008872 0 0 Z " fill="#BBCADF" transform="translate(626.0625,409.51171875)"/>
<path d="M0 0 C3.41886895 0.86161012 4.94716288 2.68936967 6.9375 5.48828125 C6.9375 7.13828125 6.9375 8.78828125 6.9375 10.48828125 C2.3175 10.48828125 -2.3025 10.48828125 -7.0625 10.48828125 C-6.7325 12.13828125 -6.4025 13.78828125 -6.0625 15.48828125 C-2.64593976 15.65505407 -2.64593976 15.65505407 0.9375 15.48828125 C1.5975 14.82828125 2.2575 14.16828125 2.9375 13.48828125 C3.9275 13.48828125 4.9175 13.48828125 5.9375 13.48828125 C5.625 15.36328125 5.625 15.36328125 4.9375 17.48828125 C1.26968328 19.9334924 -1.79703233 20.21065884 -6.0625 19.48828125 C-8.49369623 17.61813031 -9.70319173 16.2068978 -11.0625 13.48828125 C-11.74821429 6.51685268 -11.74821429 6.51685268 -9.0625 2.48828125 C-5.73190683 0.2678858 -3.92362419 -0.26008872 0 0 Z " fill="#BBC9DF" transform="translate(558.0625,409.51171875)"/>
<path d="M0 0 C3.41886895 0.86161012 4.94716288 2.68936967 6.9375 5.48828125 C6.9375 7.13828125 6.9375 8.78828125 6.9375 10.48828125 C2.3175 10.48828125 -2.3025 10.48828125 -7.0625 10.48828125 C-6.7325 12.13828125 -6.4025 13.78828125 -6.0625 15.48828125 C-2.64593976 15.65505407 -2.64593976 15.65505407 0.9375 15.48828125 C1.5975 14.82828125 2.2575 14.16828125 2.9375 13.48828125 C3.9275 13.48828125 4.9175 13.48828125 5.9375 13.48828125 C5.625 15.36328125 5.625 15.36328125 4.9375 17.48828125 C1.26968328 19.9334924 -1.79703233 20.21065884 -6.0625 19.48828125 C-8.49369623 17.61813031 -9.70319173 16.2068978 -11.0625 13.48828125 C-11.74821429 6.51685268 -11.74821429 6.51685268 -9.0625 2.48828125 C-5.73190683 0.2678858 -3.92362419 -0.26008872 0 0 Z " fill="#BCCADF" transform="translate(520.0625,409.51171875)"/>
<path d="M0 0 C1.32 0 2.64 0 4 0 C4.33 3.96 4.66 7.92 5 12 C5.721875 11.175 6.44375 10.35 7.1875 9.5 C10 7 10 7 12.8125 6.6875 C13.534375 6.790625 14.25625 6.89375 15 7 C13.66536458 8.43229167 12.33072917 9.86458333 10.99609375 11.296875 C9.80663979 12.94831188 9.80663979 12.94831188 10.1875 14.90625 C11.12592638 17.32450261 12.2719668 19.49983955 13.5625 21.75 C14.01753906 22.54921875 14.47257813 23.3484375 14.94140625 24.171875 C15.29074219 24.77515625 15.64007812 25.3784375 16 26 C13.671875 26.25 13.671875 26.25 11 26 C9.453125 24.25 9.453125 24.25 8.25 22 C7.51419291 20.65878201 6.76788022 19.32311668 6 18 C5.67 18 5.34 18 5 18 C4.67 20.64 4.34 23.28 4 26 C2.68 26 1.36 26 0 26 C0 17.42 0 8.84 0 0 Z " fill="#B8C8E0" transform="translate(858,403)"/>
<path d="M0 0 C1.32 0 2.64 0 4 0 C4.33 3.96 4.66 7.92 5 12 C5.721875 11.175 6.44375 10.35 7.1875 9.5 C10 7 10 7 12.8125 6.6875 C13.534375 6.790625 14.25625 6.89375 15 7 C13.66536458 8.43229167 12.33072917 9.86458333 10.99609375 11.296875 C9.80663979 12.94831188 9.80663979 12.94831188 10.1875 14.90625 C11.12592638 17.32450261 12.2719668 19.49983955 13.5625 21.75 C14.01753906 22.54921875 14.47257812 23.3484375 14.94140625 24.171875 C15.29074219 24.77515625 15.64007813 25.3784375 16 26 C13.671875 26.25 13.671875 26.25 11 26 C9.453125 24.25 9.453125 24.25 8.25 22 C7.51419291 20.65878201 6.76788022 19.32311668 6 18 C5.67 18 5.34 18 5 18 C4.67 20.64 4.34 23.28 4 26 C2.68 26 1.36 26 0 26 C0 17.42 0 8.84 0 0 Z " fill="#B8C6DE" transform="translate(456,403)"/>
<path d="M0 0 C5.94 0 11.88 0 18 0 C18 0.99 18 1.98 18 3 C13.38 3 8.76 3 4 3 C4 5.64 4 8.28 4 11 C7.96 11 11.92 11 16 11 C16 11.99 16 12.98 16 14 C12.04 14 8.08 14 4 14 C4 17.96 4 21.92 4 26 C2.68 26 1.36 26 0 26 C0 17.42 0 8.84 0 0 Z " fill="#BFCCDF" transform="translate(317,403)"/>
<path d="M0 0 C1.32 0 2.64 0 4 0 C4.33 4.95 4.66 9.9 5 15 C6.65 15 8.3 15 10 15 C11.94090826 13.05909174 11.39919435 9.52706098 11.5625 6.9375 C11.64628906 5.64714844 11.73007812 4.35679687 11.81640625 3.02734375 C11.87699219 2.02832031 11.93757813 1.02929688 12 0 C13.32 0 14.64 0 16 0 C16 6.27 16 12.54 16 19 C3.6966325 19.36544656 3.6966325 19.36544656 1.09375 18 C-0.67520732 14.76533518 -0.30953066 11.39519494 -0.1875 7.8125 C-0.17396484 7.06291016 -0.16042969 6.31332031 -0.14648438 5.54101562 C-0.11118539 3.69370233 -0.05737917 1.84675934 0 0 Z " fill="#B7C6DE" transform="translate(338,410)"/>
<path d="M0 0 C2.5 1.875 2.5 1.875 4 4 C4 4.66 4 5.32 4 6 C-0.875 5.125 -0.875 5.125 -2 4 C-4.5 3.83333333 -4.5 3.83333333 -7 4 C-8.89885096 5.89885096 -8.12367506 8.57247903 -8.1328125 11.08984375 C-8.11686861 13.08634367 -8.11686861 13.08634367 -7 15 C-4.58380177 15.25030977 -4.58380177 15.25030977 -2 15 C-1.34 14.01 -0.68 13.02 0 12 C1.32 12 2.64 12 4 12 C3.64393309 14.58148508 3.16671807 15.82045747 1.375 17.75 C-2.01167542 19.53246075 -4.22496295 19.52982976 -8 19 C-11.07504636 16.97177793 -12.66581629 15.50246824 -13.48046875 11.83984375 C-13.73957582 7.64511033 -13.33216044 5.50862067 -11 1.9375 C-6.83994881 -0.74919973 -4.89701312 -0.6995733 0 0 Z " fill="#BACAE0" transform="translate(852,410)"/>
<path d="M0 0 C2 1.3125 2 1.3125 3 3 C3 3.99 3 4.98 3 6 C-0.875 5.125 -0.875 5.125 -2 4 C-4.5 3.83333333 -4.5 3.83333333 -7 4 C-8.89885096 5.89885096 -8.12367506 8.57247903 -8.1328125 11.08984375 C-8.11686861 13.08634367 -8.11686861 13.08634367 -7 15 C-4.58380177 15.25030977 -4.58380177 15.25030977 -2 15 C-1.34 14.01 -0.68 13.02 0 12 C1.32 12 2.64 12 4 12 C3.64393309 14.58148508 3.16671807 15.82045747 1.375 17.75 C-1.96624421 19.50854958 -4.27860636 19.46517421 -8 19 C-10.36497439 17.13291495 -11.66030715 15.67938569 -13 13 C-13.68571429 6.02857143 -13.68571429 6.02857143 -11 2 C-6.88044169 -0.74637221 -4.88445953 -0.63025284 0 0 Z " fill="#BECCDF" transform="translate(450,410)"/>
<path d="M0 0 C1.890625 0.2578125 1.890625 0.2578125 4 1 C5.046875 2.7421875 5.046875 2.7421875 5.75 4.875 C6.11351562 5.92300781 6.11351562 5.92300781 6.484375 6.9921875 C7 9 7 9 7 12 C7.66 12 8.32 12 9 12 C9.1546875 10.9790625 9.1546875 10.9790625 9.3125 9.9375 C10.14725019 6.37084011 11.49472754 3.33777806 13 0 C14.32 0 15.64 0 17 0 C15.17778624 6.61242722 12.94776396 12.80520671 10 19 C8.68 19 7.36 19 6 19 C4.99394407 16.39802798 3.99497475 13.79370638 3 11.1875 C2.57074219 10.08051758 2.57074219 10.08051758 2.1328125 8.95117188 C1.86210938 8.23896484 1.59140625 7.52675781 1.3125 6.79296875 C1.06113281 6.1383667 0.80976562 5.48376465 0.55078125 4.80932617 C0 3 0 3 0 0 Z " fill="#B5C5DE" transform="translate(529,410)"/>
<path d="M0 0 C2.52898228 0.36745896 3.72699979 0.7040103 5.484375 2.609375 C9.41985741 9.26568475 10.18458225 15.36602549 9 23 C7.80064753 26.38085185 6.44483925 29.34927955 4 32 C1.828125 32.734375 1.828125 32.734375 0 33 C0.28875 32.31035156 0.5775 31.62070312 0.875 30.91015625 C4.62214614 21.42519258 5.02640467 13.7704299 2 4 C1.36234679 2.65255033 0.70304425 1.3145155 0 0 Z " fill="#B3C5E1" transform="translate(876,403)"/>
<path d="M0 0 C0 1.98 0 3.96 0 6 C0.99 6 1.98 6 3 6 C3 6.99 3 7.98 3 9 C2.01 9 1.02 9 0 9 C0 13.29 0 17.58 0 22 C0.99 22 1.98 22 3 22 C3 22.99 3 23.98 3 25 C1.00045254 25.04254356 -1.00041636 25.04080783 -3 25 C-4 24 -4 24 -4.09765625 20.62109375 C-4.09098369 19.22652923 -4.07902532 17.83198257 -4.0625 16.4375 C-4.05798828 15.72658203 -4.05347656 15.01566406 -4.04882812 14.28320312 C-4.03700864 12.52209987 -4.01907263 10.76103964 -4 9 C-4.99 9 -5.98 9 -7 9 C-7 8.01 -7 7.02 -7 6 C-6.01 6 -5.02 6 -4 6 C-4 4.35 -4 2.7 -4 1 C-2 0 -2 0 0 0 Z " fill="#B2C4E0" transform="translate(815,404)"/>
<path d="M0 0 C0.99 0.33 1.98 0.66 3 1 C2.34 2.03125 1.68 3.0625 1 4.125 C-2.37708046 10.92740492 -2.18035459 18.92981175 -0.09375 26.125 C0.84334927 28.4811353 1.83752078 30.74769651 3 33 C0.47101772 32.63254104 -0.72699979 32.2959897 -2.484375 30.390625 C-6.42804337 23.72046985 -7.06926405 17.64860953 -6 10 C-4.70012215 6.07013673 -2.95584928 2.95584928 0 0 Z " fill="#B4C4DF" transform="translate(664,403)"/>
<path d="M0 0 C0 1.98 0 3.96 0 6 C1.32 6 2.64 6 4 6 C4 6.99 4 7.98 4 9 C3.01 9 2.02 9 1 9 C1 13.29 1 17.58 1 22 C1.99 22 2.98 22 4 22 C4 22.99 4 23.98 4 25 C2.00045254 25.04254356 -0.00041636 25.04080783 -2 25 C-3 24 -3 24 -3.09765625 20.62109375 C-3.09098369 19.22652923 -3.07902532 17.83198257 -3.0625 16.4375 C-3.05798828 15.72658203 -3.05347656 15.01566406 -3.04882812 14.28320312 C-3.03700864 12.52209987 -3.01907263 10.76103964 -3 9 C-3.99 9 -4.98 9 -6 9 C-6 8.01 -6 7.02 -6 6 C-5.01 6 -4.02 6 -3 6 C-3 4.35 -3 2.7 -3 1 C-1 0 -1 0 0 0 Z " fill="#B4C4DE" transform="translate(412,404)"/>
<path d="M0 0 C3 0.25 3 0.25 5 2.25 C5.46376812 9.55434783 5.46376812 9.55434783 3 13.25 C0 13.625 0 13.625 -3 13.25 C-5.71232939 9.18150591 -5.30699887 7.08523216 -5 2.25 C-3 0.25 -3 0.25 0 0 Z " fill="#3367D4" transform="translate(584,412.75)"/>
<path d="M0 0 C0.33 1.98 0.66 3.96 1 6 C-0.32 6.99 -1.64 7.98 -3 9 C-2.34 9.66 -1.68 10.32 -1 11 C-8.38804781 11.36334661 -8.38804781 11.36334661 -11 9.8125 C-12.38323858 7.30538007 -12.49315303 5.8180173 -12 3 C-8.70976944 -0.97569526 -4.75485572 -0.23774279 0 0 Z " fill="#BAC9E0" transform="translate(831,418)"/>
<path d="M0 0 C2.49078651 2.49078651 2.99593216 4.59180239 4.0625 7.9375 C4.40410156 8.99839844 4.74570312 10.05929687 5.09765625 11.15234375 C5.54431641 12.56193359 5.54431641 12.56193359 6 14 C6.33 14.99 6.66 15.98 7 17 C2.71 17 -1.58 17 -6 17 C-4.31108451 11.12900806 -2.53630629 5.55571853 0 0 Z " fill="#3F74DD" transform="translate(787,285)"/>
<path d="M0 0 C2.5 0.25 2.5 0.25 4.5 2.25 C4.96376812 9.55434783 4.96376812 9.55434783 2.5 13.25 C0 13.5625 0 13.5625 -2.5 13.25 C-4.5 11.25 -4.5 11.25 -4.765625 9.15625 C-4.75789062 7.96515625 -4.75789062 7.96515625 -4.75 6.75 C-4.75515625 5.9559375 -4.7603125 5.161875 -4.765625 4.34375 C-4.35119662 1.07707925 -3.20036774 0.32003677 0 0 Z " fill="#3367D5" transform="translate(604.5,412.75)"/>
<path d="M0 0 C1.32 0 2.64 0 4 0 C4 8.58 4 17.16 4 26 C2.68 26 1.36 26 0 26 C0 17.42 0 8.84 0 0 Z " fill="#B7C6DF" transform="translate(568,403)"/>
<path d="M0 0 C1.32 0 2.64 0 4 0 C4 8.58 4 17.16 4 26 C2.68 26 1.36 26 0 26 C0 17.42 0 8.84 0 0 Z " fill="#B6C5DE" transform="translate(366,403)"/>
<path d="M0 0 C1.32 0 2.64 0 4 0 C4 8.58 4 17.16 4 26 C2.68 26 1.36 26 0 26 C0 17.42 0 8.84 0 0 Z " fill="#B6C5DE" transform="translate(358,403)"/>
<path d="M0 0 C1.81242052 -0.02687279 3.62495233 -0.04633715 5.4375 -0.0625 C6.44683594 -0.07410156 7.45617187 -0.08570313 8.49609375 -0.09765625 C11 0 11 0 12 1 C12.04080783 2.99958364 12.04254356 5.00045254 12 7 C9.47524538 8.26237731 7.68799534 8.09856404 4.875 8.0625 C3.96492187 8.05347656 3.05484375 8.04445313 2.1171875 8.03515625 C1.41851563 8.02355469 0.71984375 8.01195312 0 8 C0 5.36 0 2.72 0 0 Z " fill="#326ADB" transform="translate(729,406)"/>
<path d="M0 0 C1.32 0.33 2.64 0.66 4 1 C4.33 0.67 4.66 0.34 5 0 C6.66617115 -0.04063832 8.33388095 -0.042721 10 0 C10 0.99 10 1.98 10 3 C8.35 3.33 6.7 3.66 5 4 C4.67 8.95 4.34 13.9 4 19 C2.68 19 1.36 19 0 19 C0 12.73 0 6.46 0 0 Z " fill="#BBCADF" transform="translate(636,410)"/>
<path d="M0 0 C0.25 2.3125 0.25 2.3125 0 5 C-2.30780656 7.57409193 -3.67397791 7.96739779 -7.125 8.3125 C-10 8 -10 8 -12 6 C-12 4.68 -12 3.36 -12 2 C-7.82262526 0.40861915 -4.46839215 -0.21278058 0 0 Z " fill="#3565D0" transform="translate(515,308)"/>
<path d="M0 0 C0.25 2.3125 0.25 2.3125 0 5 C-2.30780656 7.57409193 -3.67397791 7.96739779 -7.125 8.3125 C-10 8 -10 8 -12 6 C-11.9375 4 -11.9375 4 -11 2 C-7.3382625 -0.09242143 -4.15467129 -0.19324053 0 0 Z " fill="#3B74E0" transform="translate(883,308)"/>
<path d="M0 0 C0.25 2.3125 0.25 2.3125 0 5 C-2.30780656 7.57409193 -3.67397791 7.96739779 -7.125 8.3125 C-10 8 -10 8 -12 6 C-11.9375 4 -11.9375 4 -11 2 C-7.3382625 -0.09242143 -4.15467129 -0.19324053 0 0 Z " fill="#386BD8" transform="translate(683,308)"/>
<path d="M0 0 C0.33 0.66 0.66 1.32 1 2 C1.66 2 2.32 2 3 2 C-0.07517084 14.66970387 -0.07517084 14.66970387 -2 20 C-2.66 19.34 -3.32 18.68 -4 18 C-4.99 18 -5.98 18 -7 18 C-6 16 -6 16 -4 13 C-3.24464834 10.78632342 -2.54099411 8.55468018 -1.875 6.3125 C-1.52179687 5.13300781 -1.16859375 3.95351563 -0.8046875 2.73828125 C-0.53914062 1.83464844 -0.27359375 0.93101562 0 0 Z " fill="#B4C4DF" transform="translate(689,405)"/>
<path d="M0 0 C2.52898228 0.36745896 3.72699979 0.7040103 5.484375 2.609375 C9.48200911 9.37080554 9.53734243 15.2742099 9 23 C8.67 23 8.34 23 8 23 C7.67 18.05 7.34 13.1 7 8 C6.34 8 5.68 8 5 8 C5.33 11.3 5.66 14.6 6 18 C5.67 18 5.34 18 5 18 C4.80664062 17.03578125 4.61328125 16.0715625 4.4140625 15.078125 C4.15367187 13.81484375 3.89328125 12.5515625 3.625 11.25 C3.24214844 9.37054688 3.24214844 9.37054688 2.8515625 7.453125 C2.1569875 4.63659152 1.44319917 2.48481248 0 0 Z " fill="#A2BAE1" transform="translate(876,403)"/>
<path d="M0 0 C-0.875 4.875 -0.875 4.875 -2 6 C-3.99958364 6.04080783 -6.00045254 6.04254356 -8 6 C-8.33 4.68 -8.66 3.36 -9 2 C-2.25 0 -2.25 0 0 0 Z " fill="#3A73DF" transform="translate(832,420)"/>
<path d="M0 0 C-0.875 4.875 -0.875 4.875 -2 6 C-3.99958364 6.04080783 -6.00045254 6.04254356 -8 6 C-8.33 4.68 -8.66 3.36 -9 2 C-2.25 0 -2.25 0 0 0 Z " fill="#3362CE" transform="translate(430,420)"/>
<path d="M0 0 C1.98 0 3.96 0 6 0 C6.66 1.32 7.32 2.64 8 4 C4.7 4 1.4 4 -2 4 C-1.34 2.68 -0.68 1.36 0 0 Z " fill="#396CD6" transform="translate(621,413)"/>
<path d="M0 0 C1.98 0 3.96 0 6 0 C6.66 1.32 7.32 2.64 8 4 C4.7 4 1.4 4 -2 4 C-1.34 2.68 -0.68 1.36 0 0 Z " fill="#3869D3" transform="translate(553,413)"/>
<path d="M0 0 C1.98 0 3.96 0 6 0 C6.66 1.32 7.32 2.64 8 4 C4.7 4 1.4 4 -2 4 C-1.34 2.68 -0.68 1.36 0 0 Z " fill="#3768D2" transform="translate(515,413)"/>
<path d="M0 0 C0.66 0 1.32 0 2 0 C3.04976964 3.14930893 3.10131595 5.38814456 3.0625 8.6875 C3.05347656 9.68136719 3.04445313 10.67523438 3.03515625 11.69921875 C3.02355469 12.45847656 3.01195312 13.21773438 3 14 C2.01 14.33 1.02 14.66 0 15 C0 10.05 0 5.1 0 0 Z " fill="#C7D2E0" transform="translate(881,411)"/>
<path d="M0 0 C0.99 0.33 1.98 0.66 3 1 C2.34 2.65 1.68 4.3 1 6 C0.34 6 -0.32 6 -1 6 C-1.33 8.31 -1.66 10.62 -2 13 C-2.33 13 -2.66 13 -3 13 C-3.4726477 4.80743982 -3.4726477 4.80743982 -1.5 1.4375 C-0.7575 0.7259375 -0.7575 0.7259375 0 0 Z " fill="#AABFE0" transform="translate(842,411)"/>
<path d="M0 0 C0.99 0.33 1.98 0.66 3 1 C-0.75 4.875 -0.75 4.875 -3 6 C-3.40729228 8.32156597 -3.74438677 10.6568787 -4 13 C-4.33 13 -4.66 13 -5 13 C-5.61538462 5.73846154 -5.61538462 5.73846154 -2.5 2 C-1.675 1.34 -0.85 0.68 0 0 Z " fill="#ACBEDD" transform="translate(442,410)"/>
<path d="M0 0 C0.86625 0.3403125 0.86625 0.3403125 1.75 0.6875 C0.76 1.3475 -0.23 2.0075 -1.25 2.6875 C-2.44232613 4.73753955 -2.44232613 4.73753955 -3.25 6.6875 C-3.58 6.0275 -3.91 5.3675 -4.25 4.6875 C-4.91 5.6775 -5.57 6.6675 -6.25 7.6875 C-6.5 5.375 -6.5 5.375 -6.25 2.6875 C-4.11319077 0.39806154 -3.15626895 -0.43837069 0 0 Z " fill="#AEBFDD" transform="translate(423.25,418.3125)"/>
<path d="M0 0 C1.32 0 2.64 0 4 0 C3.67 1.32 3.34 2.64 3 4 C2.01 4 1.02 4 0 4 C-0.99 4.66 -1.98 5.32 -3 6 C-3.66 5.34 -4.32 4.68 -5 4 C-4.360625 3.71125 -3.72125 3.4225 -3.0625 3.125 C-0.84793921 2.17176549 -0.84793921 2.17176549 0 0 Z " fill="#ADBEDD" transform="translate(450,422)"/>
<path d="M0 0 C0.33 0.66 0.66 1.32 1 2 C1.66 2 2.32 2 3 2 C2.34 3.98 1.68 5.96 1 8 C0.34 8 -0.32 8 -1 8 C-0.67 5.36 -0.34 2.72 0 0 Z " fill="#B6C6DF" transform="translate(689,405)"/>
<path d="M0 0 C0.99 0.66 1.98 1.32 3 2 C2.67 3.65 2.34 5.3 2 7 C1.34 6.34 0.68 5.68 0 5 C-0.99 5 -1.98 5 -3 5 C-2 3 -2 3 0 0 Z " fill="#9BB3DE" transform="translate(685,418)"/>
</svg>
